<?xml version="1.0" encoding="UTF-8" standalone="no"?>
<!-- Created with Inkscape (http://www.inkscape.org/) -->

<svg
   width="0.5in"
   height="0.5in"
   viewBox="0 0 12.7 12.7"
   version="1.1"
   id="svg5"
   inkscape:version="1.2.2 (732a01da63, 2022-12-09)"
   sodipodi:docname="info.svg"
   inkscape:export-filename="help.png"
   inkscape:export-xdpi="96"
   inkscape:export-ydpi="96"
   xml:space="preserve"
   xmlns:inkscape="http://www.inkscape.org/namespaces/inkscape"
   xmlns:sodipodi="http://sodipodi.sourceforge.net/DTD/sodipodi-0.dtd"
   xmlns="http://www.w3.org/2000/svg"
   xmlns:svg="http://www.w3.org/2000/svg"><sodipodi:namedview
     id="namedview7"
     pagecolor="#505050"
     bordercolor="#eeeeee"
     borderopacity="1"
     inkscape:showpageshadow="0"
     inkscape:pageopacity="0"
     inkscape:pagecheckerboard="0"
     inkscape:deskcolor="#505050"
     inkscape:document-units="in"
     showgrid="false"
     inkscape:zoom="10.099009"
     inkscape:cx="14.902452"
     inkscape:cy="26.042159"
     inkscape:window-width="1920"
     inkscape:window-height="1017"
     inkscape:window-x="-8"
     inkscape:window-y="-8"
     inkscape:window-maximized="1"
     inkscape:current-layer="layer1" /><defs
     id="defs2"><rect
       x="182.6055"
       y="274.46838"
       width="465.87201"
       height="754.57574"
       id="rect379" /><rect
       x="182.59218"
       y="190.90984"
       width="152.88629"
       height="101.79217"
       id="rect236" /></defs><g
     inkscape:label="Lager 1"
     inkscape:groupmode="layer"
     id="layer1"><g
       id="g118"
       transform="scale(0.5)"><text
         xml:space="preserve"
         transform="matrix(0.04443372,0,0,0.0407218,1.6369337,-11.404045)"
         id="text377"
         style="font-style:normal;font-variant:normal;font-weight:normal;font-stretch:normal;font-size:580.536px;font-family:Arial;-inkscape-font-specification:Arial;text-align:justify;white-space:pre;shape-inside:url(#rect379);shape-padding:2.31113;display:inline;fill:#ffffff"
         x="0"
         y="0"><tspan
           x="184.91602"
           y="799.69968"
           id="tspan205">i</tspan></text><path
         id="path400"
         clip-path="none"
         style="fill:#ffffff;stroke-width:0.191594"
         d="M 12.699999,0.635 A 12.064999,12.065001 0 0 0 0.635,12.699999 12.064999,12.065001 0 0 0 12.699999,24.764999 12.064999,12.065001 0 0 0 24.765,12.699999 12.064999,12.065001 0 0 0 12.699999,0.635 Z m 0,1.2101332 A 10.8585,10.8585 0 0 1 23.558301,12.703926 10.8585,10.8585 0 0 1 12.699999,23.56223 10.8585,10.8585 0 0 1 1.8416953,12.703926 10.8585,10.8585 0 0 1 12.699999,1.8451332 Z" /></g></g></svg>
